<svg t="1595603674910" class="icon" viewBox="0 0 1024 1024" version="1.1" xmlns="http://www.w3.org/2000/svg" p-id="8632" width="250" height="250"><path d="M318.463363 489.541336a1278.42731 1278.42731 0 0 1 214.595838-123.903753c80.486239-36.59086 164.556471-64.716671 248.933902-91.306484 49.936967-15.769568 100.010467-30.993005 150.459432-44.85111 3.618126-1.023998 4.437324-3.24266 2.321062-6.348787A511.964843 511.964843 0 0 0 537.530658 0.514047a3.891192 3.891192 0 0 0-2.798927 0.887465c-6.280521 4.983457-12.390375 10.23998-18.261297 15.701302-18.705029 17.407965-35.157263 37.273525-49.766301 58.060684-37.000459 52.599361-62.224942 110.967245-99.600867 165.990068-31.061271 45.806842-70.587592 89.292621-116.053101 120.626958-1.979729 1.365331-2.389329 2.798928-1.433598 5.01759a961.022078 961.022078 0 0 0 62.907608 121.514424c1.604263 2.696528 3.413327 3.071994 5.939188 1.228798zM17.544498 396.971921c40.789252 11.400511 84.445698 16.657033 125.576282 10.137579 30.515139-4.81279 59.630814-16.110901 86.937427-31.982869 2.798928-1.604263 4.607991-1.023998 5.905054 1.945596a968.56553 968.56553 0 0 0 63.45374 121.68509c1.433597 2.321062 1.126398 3.857059-1.023998 5.495456-4.778657 3.54986-9.523181 7.167986-14.233571 10.751978a1317.202699 1317.202699 0 0 0-225.620882 221.695557c-2.525862 3.106127-5.22239 2.798928-6.963186-0.785065a512.135509 512.135509 0 0 1-39.184989-335.871328c0.682665-3.003727 2.218662-3.925325 5.11999-3.071994z m488.481157-110.18218c9.83038-4.403191 19.729027-8.703983 29.627674-12.868241a1955.631289 1955.631289 0 0 1 124.586417-47.035639c7.441052-2.559995 14.882104-5.11999 22.357289-7.611718 3.071994-1.023998 3.857059-2.833061 2.389328-5.768522l-3.686392-7.509318c-1.126398-2.321062-2.559995-2.935461-5.051723-2.082129a2885.865162 2885.865162 0 0 0-76.73158 26.965279c-13.107174 4.846924-26.180214 9.864514-39.184989 15.018637a1502.785261 1502.785261 0 0 0-61.67881 26.009548c-2.867194 1.297064-3.413327 3.037861-1.945596 5.802655l3.959459 7.304518c1.331197 2.389329 2.833061 2.901328 5.358923 1.77493z m-85.811029 351.367831l7.918918 9.489047c20.753025 24.746617 42.222849 48.810569 64.204671 72.430789a2077.145712 2077.145712 0 0 0 52.906561 54.68149c34.986597 34.81593 71.236124 68.26653 108.885116 100.010467a1565.897668 1565.897668 0 0 0 106.222721 82.261169c1.604263 1.092264 2.798928 1.160531 4.437324 0.2048a512.067243 512.067243 0 0 0 237.396859-297.369006c1.092264-3.720526-0.511999-5.666122-4.334925-5.358922a532.956801 532.956801 0 0 1-49.117768 1.911462 516.026701 516.026701 0 0 1-136.976793-19.55836 636.926726 636.926726 0 0 1-21.606357-6.553587 1394.343878 1394.343878 0 0 1-42.700715-14.677304c-15.291703-5.495456-30.583405-11.025045-46.011641-16.145035-13.38024-4.437324-26.86288-8.533316-40.516186-11.946642a368.434463 368.434463 0 0 0-39.219121-7.577585 303.888459 303.888459 0 0 0-67.105999-1.126398 274.431451 274.431451 0 0 0-32.563135 5.188256 254.77069 254.77069 0 0 0-47.138039 15.462369 247.193106 247.193106 0 0 0-54.067092 32.767935c-2.321062 1.87733-2.491728 3.618126-0.614399 5.905055z m-18.329563 10.922645a222.344089 222.344089 0 0 0-19.86556 22.459688A202.478528 202.478528 0 0 0 351.57263 727.040594c-3.618126 9.966913-6.519454 20.17276-8.874649 30.515139-2.389329 10.478912-4.198392 21.094358-5.529589 31.743936a419.361295 419.361295 0 0 0-3.24266 48.537503c-0.2048 11.81011 0 23.586086 0.614399 35.362063 1.023998 21.265024 3.413327 42.461782 7.167986 63.419606a450.627365 450.627365 0 0 0 15.701302 61.67881 3.686393 3.686393 0 0 0 2.730661 2.628262 511.896576 511.896576 0 0 0 379.90324-30.549272c3.686393-1.843196 3.891192-4.710391 0.580265-7.09972-92.262215-66.320934-176.67378-142.779448-255.316822-226.44008-26.623947-28.33061-52.531095-57.480418-77.345979-87.517692-2.013863-2.389329-3.891192-2.525862-6.109854-0.307199zM18.466096 375.63863c26.623947-96.426474 71.679857-170.666325 144.963977-238.762189 3.208527-3.003727 6.314654-1.911463 6.929053 2.389328 10.13758 68.846796 26.623947 137.181592 51.165764 202.137196 1.57013 4.198392 3.208527 8.36265 4.846924 12.526908 0.955731 2.389329 0.477866 3.788792-1.706663 5.11999l-1.194665 0.682666a263.33814 263.33814 0 0 1-39.116721 19.046361 217.940897 217.940897 0 0 1-53.31616 13.209574 252.790961 252.790961 0 0 1-48.127904 0.341333 313.787106 313.787106 0 0 1-34.952464-5.11999 354.098492 354.098492 0 0 1-22.801021-5.393056l-3.822925-1.058131c-2.798928-0.785065-3.652259-2.286929-2.867195-5.11999z m770.490193-142.130916l-1.535997-8.191983c-0.580266-3.174394-2.252795-4.198392-5.32479-3.208527l-5.188256 1.604263a5576.556314 5576.556314 0 0 0-44.373244 14.097039 3726.055481 3726.055481 0 0 0-70.416926 23.483686c-24.371151 8.46505-48.605769 17.271432-72.635588 26.623947-16.657033 6.48532-33.211667 13.209574-49.663901 20.241026a1321.947223 1321.947223 0 0 0-102.058463 49.083635c-2.833061 1.501864-3.310927 3.34506-1.535996 6.007455l4.676257 6.929053c1.501864 2.218662 3.003727 2.594128 5.393056 1.331197a1402.057996 1402.057996 0 0 1 81.54437-39.93592c12.287975-5.529589 24.746617-10.854378 37.205259-16.008501 20.753025-8.533316 41.71085-16.657033 62.805208-24.405285 13.17544-4.846924 26.419147-9.557314 39.696987-14.199438a3284.848897 3284.848897 0 0 1 73.864386-24.575951c10.069313-3.24266 20.138626-6.48532 30.276206-9.659714l14.404237-4.471458c2.559995-0.819198 3.34506-2.150396 2.867195-4.744524z m-463.188407 276.035715c13.585039 21.196758 27.852744 41.91565 42.734848 62.224942 11.639443 15.906102 23.654353 31.57327 35.976461 46.967373 1.843196 2.286929 3.54986 2.491728 5.836788 0.682665a264.089072 264.089072 0 0 1 64.682538-38.05859c49.9711-20.479959 105.403523-24.88315 157.627418-16.588767 65.740669 10.376513 126.395481 40.789252 190.804951 58.060684a502.168596 502.168596 0 0 0 182.203369 14.233571c2.150396-0.238933 3.071994-1.092264 3.618126-3.14026a512.135509 512.135509 0 0 0-60.211079-388.709623c-1.160531-1.911463-2.423462-2.423462-4.607991-1.843196-24.405285 6.655987-48.674036 13.653306-72.908654 20.821292a5065.308269 5065.308269 0 0 0-92.330482 28.398876c-14.472504 4.607991-28.945009 9.215982-43.349247 13.960506a2307.579385 2307.579385 0 0 0-126.088281 44.714577 1484.114365 1484.114365 0 0 0-77.448378 32.938601 1262.043343 1262.043343 0 0 0-205.482256 119.739493c-2.252795 1.638397-2.559995 3.24266-1.058131 5.597856z m-261.529077 250.742965a512.101376 512.101376 0 0 0 266.546667 230.570206c4.130125 1.57013 6.655987-0.750932 5.461322-5.051724-13.653306-47.342839-19.592494-96.938473-18.875695-147.216772 0.682665-51.984963 8.533316-104.75499 33.177533-149.367168a230.501939 230.501939 0 0 1 41.369517-53.623359c1.945596-1.87733 2.047996-3.44746 0.341333-5.563722a1315.837368 1315.837368 0 0 1-79.598774-110.216313c-1.706663-2.628261-3.515726-2.935461-6.007455-1.092265a1260.097746 1260.097746 0 0 0-137.215725 118.954429 1321.742423 1321.742423 0 0 0-104.823257 117.998697c-1.228798 1.57013-1.365331 2.833061-0.341333 4.607991zM239.956853 343.041362l-1.604263-4.130125c-5.597855-14.677304-10.786112-29.491141-15.564769-44.441511a937.709058 937.709058 0 0 1-24.132218-91.374751 1081.512504 1081.512504 0 0 1-14.097039-82.261169 3.686393 3.686393 0 0 1 1.467731-3.754659A512.067243 512.067243 0 0 1 499.847534 0.002048c4.846924-0.1024 6.48532 3.822926 2.969594 7.167986-5.461322 5.188256-10.717845 10.581312-15.837835 16.110901-11.70771 12.731708-22.459688 26.282614-32.494869 40.413786-8.46505 11.946643-16.383967 24.234618-23.995685 36.761526a1228.797542 1228.797542 0 0 0-22.186622 38.399923c-9.557314 17.066633-18.943962 34.269798-28.808476 51.199898-8.46505 14.506638-17.271432 28.808476-26.726347 42.666581-8.396783 12.356242-17.339699 24.337018-26.760479 35.908195-9.864514 12.083176-20.275159 23.722619-31.266071 34.747664a396.184808 396.184808 0 0 1-48.537503 41.540183c-2.867194 2.047996-4.983457 1.433597-6.280521-1.877329z" fill="#EA3443" p-id="8633"></path></svg>